<?xml version="1.0" encoding="UTF-8"?>
<svg id="Layer_1" xmlns="http://www.w3.org/2000/svg" xmlns:rdf="http://www.w3.org/1999/02/22-rdf-syntax-ns#" xmlns:dc="http://purl.org/dc/elements/1.1/" xmlns:cc="http://creativecommons.org/ns#" version="1.1" viewBox="0 0 1007.6 141.2">
  <!-- Generator: Adobe Illustrator 29.5.1, SVG Export Plug-In . SVG Version: 2.1.0 Build 141)  -->
  <defs>
    <style>
      .st0 {
        fill: #fff;
      }
    </style>
  </defs>
  <path class="st0" d="M147.8,48.6c-11.9,0-21.6,9.7-21.6,21.6s9.2,21.1,20.7,21.6c.3,0,.6,0,.9,0,9.7,0,17.9-6.4,20.6-15.1h-10.1c-2.2,3.5-6.1,5.9-10.5,5.9-6.8,0-12.3-5.5-12.3-12.3s5.5-12.3,12.3-12.3,7.7,2,10,5.1h10.4c-3-8.3-11-14.3-20.3-14.3h0ZM196.5,48.6c-11.9,0-21.6,9.7-21.6,21.6s9.7,21.6,21.6,21.6,21.6-9.7,21.6-21.6-2.1-10.7-5.6-14.5c-.5-.5-1-1-1.5-1.5-3.8-3.5-8.9-5.6-14.5-5.6h0ZM427.6,48.6c-11.9,0-21.6,9.7-21.6,21.6s8,19.8,18.4,21.4c1,.2,2.1.2,3.2.2,10.6,0,19.4-7.7,21.2-17.7,0,0,0-.1,0-.2,0-.2,0-.4.1-.6,0-.5.1-1,.2-1.5,0-.5,0-1,0-1.6s0-.7,0-1.1c0-1.1-.2-2.1-.4-3.1h-21.9v8h12.4c-1.6,4.9-6.3,8.5-11.7,8.5s-12.3-5.5-12.3-12.3,5.5-12.3,12.3-12.3,5.8,1.1,8,2.9h11.5c-3.5-7.2-10.9-12.2-19.4-12.2h0ZM564.9,48.6c-11.9,0-21.6,9.7-21.6,21.6s9.2,21.1,20.7,21.6c.3,0,.6,0,.9,0,9.7,0,17.9-6.4,20.6-15.1h-10.1c-2.2,3.5-6.1,5.9-10.5,5.9-6.8,0-12.3-5.5-12.3-12.3s5.5-12.3,12.3-12.3,7.7,2,10,5.1h10.4c-3-8.3-11-14.3-20.3-14.3h0ZM226.9,49.4v43.2h9.6v-24.6l30.7,24.6v-43.2h-9.6v24.6l-30.7-24.6ZM272.6,49.4l18.6,33.4,5.4,9.8,5.8-10.4,18.2-32.8h-10.8l-12.8,23.1-12.8-23.1h-11.5ZM325.9,49.4v43.2h29.7v-8.3h-20.1v-9h16.8v-8.3h-16.8v-9.3h20.1v-8.3h-29.7ZM363.5,49.4v43.2h9.6v-14.4h6.4l11.4,14.4h10.9l-12.1-15.3c5.7-2,9.7-7.1,9.7-13.5s-5.1-12.8-11.9-14.1c-1-.2-2.1-.3-3.2-.3h-20.8ZM457.9,49.4v43.2h29.7v-8.3h-20.1v-9h16.8v-8.3h-16.8v-9.3h20.1v-8.3h-29.7ZM495.6,49.4v43.2h9.6v-24.6l30.7,24.6v-43.2h-9.6v24.6l-30.7-24.6ZM593.9,49.4v43.2h29.7v-8.3h-20.1v-9h16.8v-8.3h-16.8v-9.3h20.1v-8.3h-29.7ZM655.8,49.4v43.2h9.6v-18.3h18.9v18.3h9.6v-43.2h-9.6v16.6h-18.9v-16.6h-9.6ZM703.1,49.4v43.2h29.7v-8.3h-20.1v-9h16.8v-8.3h-16.8v-9.3h20.1v-8.3h-29.7ZM790.1,49.4v43.2h9.6s20.9,0,20.9,0v-8.3h-20.9v-34.9h-9.6ZM829.4,49.4h0s-12.7,0-12.7,0v8.3h12.7v34.9h9.6v-34.9h12.6v-8.3h-12.7s-9.6,0-9.6,0ZM857.5,49.4v43.2h9.6v-18.3h18.9v18.3h9.6v-43.2h-9.6v16.6h-18.9v-16.6h-9.6ZM760.9,49.4l-5.4,9.8-18.6,33.4h11.5l12.8-23.1,12.8,23.1h10.8l-18.2-32.8-5.8-10.4ZM373.1,57.7h11.2c3,0,5.5,3.1,5.5,6.1s-1.8,5.2-4.2,5.9c-.4.1-.8.2-1.3.2h-11.2v-12.2ZM196.5,57.9c6.8,0,12.3,5.5,12.3,12.3s-5.5,12.3-12.3,12.3-12.3-5.5-12.3-12.3,5.5-12.3,12.3-12.3Z"/>
</svg>